<?xml version="1.0" standalone="no"?><!DOCTYPE svg PUBLIC "-//W3C//DTD SVG 1.1//EN" "http://www.w3.org/Graphics/SVG/1.1/DTD/svg11.dtd"><svg t="1576249342818" class="icon" viewBox="0 0 1024 1024" version="1.1" xmlns="http://www.w3.org/2000/svg" p-id="6945" xmlns:xlink="http://www.w3.org/1999/xlink" width="200" height="200"><defs><style type="text/css"></style></defs><path d="M502 69.5C266.4 69.5 75.4 190.6 75.4 340c0 11.2 1.1 22.2 3.2 33l1.1 5c51 244 190 410 401.9 416 255.5 7.2 374.8-172.9 434.7-389.1 9.4-32.9 12.4-42.6 12.4-64.9C928.6 190.6 737.6 69.5 502 69.5zM523.6 753C328.3 763.1 215 642.9 153 495.6c77.2 69.5 204.7 114.9 349 114.9 139 0 262.4-42.1 340.3-107.4C784.7 640 686.7 744.5 523.6 753zM502 569.9C301.7 569.9 120.4 467 120.4 340S301.7 110.1 502 110.1 881.6 213 881.6 340 702.2 569.9 502 569.9z" fill="#323333" p-id="6946"></path><path d="M501.9 265.6c-49 0-88.7 25.3-88.7 56.4s39.7 56.4 88.7 56.4 88.7-25.3 88.7-56.4-39.7-56.4-88.7-56.4z m0.1 100.7c-41.7 0-75.1-17.3-75.1-43.8 0-20.9 22.3-43.8 75.1-43.8 44.4 0 74.1 17.3 74.1 43.8s-32.5 43.8-74.1 43.8z" fill="#323333" p-id="6947"></path><path d="M723.3 311H647c-3-16.3-12.7-31.3-27.1-43.8l61.7-35.6c4.8-2.8 6.4-8.9 3.7-13.7-2.8-4.8-8.9-6.4-13.7-3.7l-65.8 38c-1.2 0.7-2.2 1.6-2.9 2.6-11.6-7-25.1-12.9-39.8-17.2l35.1-60.8c2.8-4.8 1.1-10.9-3.7-13.7s-10.9-1.1-13.7 3.7l-38 65.8c0 0.1-0.1 0.1-0.1 0.2-9.8-1.8-20-3-30.6-3.4 0.3-0.9 0.4-1.9 0.4-2.9v-76c0-5.5-4.5-10-10-10s-10 4.5-10 10v76c0 1 0.1 1.9 0.4 2.8-10.6 0.4-20.8 1.5-30.7 3.3l-38-65.8c-2.8-4.8-8.9-6.4-13.7-3.7s-6.4 8.9-3.7 13.7l35 60.6c-15.6 4.5-29.8 10.7-41.9 18.2-0.5-0.5-1.1-0.9-1.7-1.3l-65.8-38c-4.8-2.8-10.9-1.1-13.7 3.7-2.8 4.8-1.1 10.9 3.7 13.7l60.3 34.8c-14 12.6-23.3 27.5-26 43.7h-76c-5.5 0-10 4.5-10 10s4.5 10 10 10h76c2.7 16 11.8 30.8 25.7 43.4L318 412.8c-4.8 2.8-6.4 8.9-3.7 13.7 2.8 4.8 8.9 6.4 13.7 3.7l65.8-38c1.9-1.1 3.3-2.8 4.2-4.7 11.2 7.2 24.3 13.3 38.8 17.9L400 469.1c-2.8 4.8-1.1 10.9 3.7 13.7 4.8 2.8 10.9 1.1 13.7-3.7l38-65.8c0.5-0.9 0.9-1.8 1.1-2.8 11.8 2.5 24.3 4 37.2 4.5v76.4c0 5.5 4.5 10 10 10s10-4.5 10-10v-76-0.6c9.9-0.5 19.6-1.6 28.9-3.3 0.1 0.3 0.2 0.5 0.4 0.8l38 65.8c2.8 4.8 8.9 6.4 13.7 3.7 4.8-2.8 6.4-8.9 3.7-13.7L563 406.7c14.5-4.2 27.7-9.9 39.1-16.7 0.8 1 1.8 1.9 3 2.6l65.8 38c4.8 2.8 10.9 1.1 13.7-3.7 2.8-4.8 1.1-10.9-3.7-13.7L619 377.5c15.6-13.2 25.7-29.2 28.3-46.5h76c5.5 0 10-4.5 10-10s-4.5-10-10-10z m-221.4 89.9c-68.6 0-129.4-35.3-129.4-78.9s60.8-78.9 129.4-78.9 129.4 35.3 129.4 78.9-60.8 78.9-129.4 78.9z" fill="#323333" p-id="6948"></path></svg>