<?xml version="1.0" standalone="no"?><!DOCTYPE svg PUBLIC "-//W3C//DTD SVG 1.1//EN" "http://www.w3.org/Graphics/SVG/1.1/DTD/svg11.dtd"><svg t="1576249383493" class="icon" viewBox="0 0 1024 1024" version="1.1" xmlns="http://www.w3.org/2000/svg" p-id="7777" xmlns:xlink="http://www.w3.org/1999/xlink" width="200" height="200"><defs><style type="text/css"></style></defs><path d="M279 252s69.8-88 157.6-81 157.6 81 157.6 81L455.4 464 279 252z" fill="#FFFCEB" p-id="7778"></path><path d="M765 252s-69.8-88-157.6-81-157.6 81-157.6 81l138.7 212L765 252z" fill="#FFFCEB" p-id="7779"></path><path d="M760 254.7c-123.5 21.5-182.7 283.9-182.7 283.9-36.1 101.7-52.5 219.2-52.5 219.2s23.9 51.3 54.4 27.4 23.6-125.1 61-204.4c37.4-79.2 93.1-209.3 127.6-246s151.7-3 151.7-3-50.8-96-159.5-77.1z" fill="#FFFCEB" p-id="7780"></path><path d="M578.1 535.2c-0.5 2.2-0.8 3.4-0.8 3.4-0.1 0.2-0.1 0.3-0.2 0.5v0.1l-16.3 51.4c-24.6 85.9-36 167.2-36 167.2s16.9 36.2 40.4 33.6l18.5-10.6c25.4-30 21.1-124.9 56.5-200C671 515.6 714.1 416 747.7 362.3c7.2-11.6 14-21 20.1-27.5 6.4-6.8 15.7-11.2 26.6-13.9-71.2 9.9-107.2 39.9-148.4 71.4-36.7 28-62.6 122.3-67.9 142.9z" fill="#FFF5CC" p-id="7781"></path><path d="M292 245c131.9 33.1 166.9 299.9 166.9 299.9 27.8 104.7 32.6 223.2 32.6 223.2s-42.6 52-61.8 22.5c-19.2-29.5-10.2-139.2-42.1-221.6s-79.6-205-113-244.8S110 307 110 307s66-91 182-62z" fill="#FFFCEB" p-id="7782"></path><path d="M429.7 790.6c19.2 29.5 61.8-22.5 61.8-22.5s-3.3-81.7-20.3-169.3L459 545.5s0-0.2-0.1-0.5v-0.1s0-0.2-0.1-0.6c-1.9-12.5-19.3-118.5-58.2-151.6-41.4-35.2-77.1-68.5-153.7-85.1-0.8-0.2-1.5-0.3-2.3-0.5 12.7 3.6 23.3 9.1 30 17.1C308 364 355.7 486.6 387.6 569s22.9 192.1 42.1 221.6z" fill="#FFF5CC" p-id="7783"></path><path d="M513.2 795.9c-50.6 1.4-54.2-160.7-85.5-254.2s-61.2-211.3-40.9-254.2c24.1-50.8 257.6-50.8 277.7 11.8 17.7 55.5-34.5 161.3-65.8 253.4-31.4 92.1-35 241.8-85.5 243.2z" fill="#FFF5CC" p-id="7784"></path><path d="M526.4 464.7S624 318.3 665 301c-0.2-0.6-0.3-1.1-0.5-1.7-20.1-62.6-253.6-62.6-277.7-11.8-0.5 1.1-1 2.3-1.5 3.5 47.8 32.6 141.1 173.7 141.1 173.7z" fill="#FFFCEB" p-id="7785"></path><path d="M415.8 774.8c-9-24.5 25.3-47.7 88.4-48.2s96.5 21.4 96.5 44.5-81.9 117.7-135 137.3C412.6 928 389.5 928 364.1 928s-27.7-45 19.6-62.3c47.4-17.3 41.1-66.4 32.1-90.9z" fill="#2C4432" p-id="7786"></path><path d="M250.4 229.3c-2.5 0-5-0.9-6.9-2.8-4-3.8-4.1-10.2-0.3-14.1 12.6-13 33-31.8 59-46.9 32.1-18.7 64.2-26.9 95.2-24.5 27.1 2.1 55 10.5 83.2 25 4.9 2.5 6.9 8.5 4.3 13.5-2.5 4.9-8.5 6.9-13.5 4.3-25.8-13.2-51.2-20.9-75.6-22.8-21.1-1.7-76.7 1.3-138.2 65.3-2 2-4.6 3-7.2 3z" fill="#212121" p-id="7787"></path><path d="M720 240c-2.9 0-5.9-1.3-7.8-3.8-0.7-0.8-67.7-83.7-149-77.3-25.8 2.1-52.5 10.4-79.5 24.8-4.9 2.6-10.9 0.7-13.5-4.1-2.6-4.9-0.7-10.9 4.1-13.5 29.4-15.6 58.8-24.7 87.3-27 38.4-3.1 79.3 10.7 118.5 39.8 29.1 21.7 47 44 47.7 44.9 3.4 4.3 2.7 10.6-1.6 14-1.8 1.5-4 2.2-6.2 2.2zM623 365.6c-3.1 0-6.1-1.4-8-4-3.3-4.4-2.4-10.7 2-14 29-21.6 70.6-47.5 136.3-56.6 5.5-0.8 10.5 3.1 11.3 8.5 0.8 5.5-3.1 10.5-8.5 11.3-61.2 8.5-100.1 32.7-127.1 52.8-1.8 1.4-3.9 2-6 2z" fill="#212121" p-id="7788"></path><path d="M698.6 367.8c-1.7 0-3.4-0.4-5-1.3-4.8-2.8-6.4-8.9-3.7-13.7 12.1-21 22.1-35.6 30.6-44.6 16.6-17.6 49.3-23.7 97.2-18.3 14.2 1.6 27.6 4 38.5 6.3-5.8-7-13.4-15-22.7-22.6-32.4-26.5-70.1-36.2-111.8-29-27.6 4.8-54.5 23.8-79.9 56.5-3.4 4.4-9.7 5.1-14 1.8-4.4-3.4-5.1-9.7-1.8-14 28.5-36.7 59.6-58.2 92.3-63.9 59.8-10.4 102.9 12.6 128.6 33.7 27.5 22.7 40.9 47.7 41.5 48.8 1.9 3.5 1.5 7.9-1.1 11-2.5 3.1-6.7 4.4-10.5 3.3-0.3-0.1-29.1-8.3-61.5-11.9-40-4.5-68.5-0.2-80.1 12.2-7.4 7.9-16.5 21.2-27.8 40.8-2 3.1-5.3 4.9-8.8 4.9zM558.5 736.7c-0.8 0-1.7-0.1-2.5-0.3-5.4-1.4-8.6-6.8-7.2-12.2 3.3-13 6.1-28.8 9.1-45.5 6.8-38.6 14.6-82.4 33.3-122 7-14.9 14.7-31.6 22.8-49.3 13.7-29.8 29.2-63.5 44.2-94.1 2.4-5 8.4-7 13.4-4.6s7 8.4 4.6 13.4c-14.9 30.4-29.7 62.5-44 93.7-8.1 17.7-15.8 34.5-22.9 49.5-17.6 37.2-25.1 79.6-31.7 117-3 17.1-5.9 33.2-9.4 47-1.2 4.4-5.2 7.4-9.7 7.4zM342.5 367.3c-2.3 0-4.6-0.8-6.4-2.4-57.9-48.8-93.7-59.5-131.3-67.6-5.4-1.2-8.8-6.5-7.7-11.9s6.5-8.8 11.9-7.7c67.8 14.6 104.9 42.3 139.9 71.8 4.2 3.6 4.8 9.9 1.2 14.1-1.9 2.5-4.8 3.7-7.6 3.7z" fill="#212121" p-id="7789"></path><path d="M347.6 559c-4 0-7.8-2.4-9.3-6.4-1.7-4.5-3.5-9.1-5.4-13.8-3.5-9.1-7.1-18.4-10.9-28.1-4.2-10.8-8.8-22.4-13.6-34.1-35.9-89.2-62.5-143.6-81.5-166.1-11.4-13.6-42.3-20.6-86.8-19.8-35.8 0.6-68.2 6.1-68.5 6.2-4 0.7-8-1.1-10.2-4.6-2.1-3.5-2-7.9 0.4-11.2 0.7-0.9 16.7-22.8 46.7-42.2 27.8-18 73.2-37.2 132.2-26.6 5 0.9 9.4 1.9 13.7 2.9 33.9 8.5 64.5 31.9 90.9 69.5 3.2 4.5 2.1 10.8-2.4 13.9-4.5 3.2-10.8 2.1-13.9-2.4-23.6-33.5-50.3-54.3-79.3-61.5-3.8-1-7.9-1.8-12.4-2.7-41.8-7.5-81.3 0.3-117.1 23.3-9.4 6-17.3 12.4-23.7 18.1 12.2-1.3 27.2-2.4 43.2-2.7 52.2-1 86.8 8.1 102.7 27 20.6 24.6 47.5 79.1 84.7 171.5 4.8 11.8 9.4 23.4 13.6 34.3 3.8 9.7 7.5 19.1 11 28.2 1.8 4.7 3.6 9.3 5.3 13.8 2 5.1-0.5 10.9-5.7 12.9-1.3 0.4-2.5 0.6-3.7 0.6zM366.7 635.1c-4.9 0-9.1-3.6-9.9-8.5-0.4-2.8-0.9-5.6-1.4-8.5l-0.2-1.3c-1-5.4 2.7-10.6 8.1-11.6s10.6 2.7 11.6 8.1l0.2 1.3c0.5 2.9 1.1 6 1.5 9.1 0.8 5.5-3 10.5-8.4 11.3-0.5 0.1-1 0.1-1.5 0.1zM378.3 736.7c-4.9 0-9.2-3.7-9.9-8.7-1.3-9.9-2.3-20.7-3.5-32.1-0.4-3.8-0.8-7.7-1.2-11.7-0.6-5.5 3.4-10.4 8.9-11 5.5-0.5 10.4 3.4 11 8.9 0.4 4 0.8 7.9 1.2 11.8 1.1 11.2 2.1 21.9 3.4 31.4 0.7 5.5-3.1 10.5-8.6 11.2-0.4 0.2-0.9 0.2-1.3 0.2z" fill="#212121" p-id="7790"></path><path d="M621.6 271.4c-10 3.9-33.2 18.7-86.6 88.3-20.2 26.3-38.5 52.4-48.6 67.1-10-14.7-28.1-40.7-48.4-67.8-42.1-56-73.7-89.8-93.9-100.4l-9.2 17.8c17 8.9 48 42.5 87.1 94.6 30.5 40.6 55.8 78.8 56.1 79.2 1.8 2.8 4.9 4.5 8.3 4.5 3.3 0 6.5-1.7 8.4-4.5 0.2-0.4 26-39.1 56.2-78.4 53.4-69.7 73.7-80.8 79.9-82.4 10.1-2.5-9.3-18-9.3-18z" fill="#212121" p-id="7791"></path><path d="M518.7 716.6c-0.8 0-1.7-0.1-2.5-0.3-5.3-1.4-8.6-6.8-7.2-12.2 5.3-20.2 9.8-43.2 14.5-67.5 7.2-36.9 14.7-75.1 25.6-107 7.4-21.9 16.2-44.8 24.6-67 26.4-69.4 53.6-141.1 41.2-180.1-3.2-10.1-15.5-19.3-35.4-26.7-19.7-7.2-45.6-12.1-74.8-14-34-2.3-69.6-0.2-97.7 5.6-27.5 5.7-46.6 14.8-51.2 24.6-15.2 32 0.3 124.3 41.3 246.7 3.6 10.8 7.1 23 10.7 38.3 5.7 23.7 10.5 49.3 15.1 74.1 4.7 25 9.1 48.7 14.2 69.7 1.3 5.4-2 10.8-7.3 12.1-5.4 1.3-10.8-2-12.1-7.3-5.3-21.5-9.7-45.4-14.4-70.7-4.6-24.5-9.3-49.9-14.9-73.1-3.5-14.7-6.8-26.4-10.3-36.6-25.4-75.9-64.5-210.8-40.5-261.7 7.7-16.3 29.7-28.2 65.2-35.6 29.8-6.1 67.3-8.3 103-5.9 31.1 2.1 59 7.3 80.4 15.2 26.3 9.7 42.3 22.9 47.6 39.3 14.6 45.7-12.7 117.4-41.5 193.3-8.4 22-17 44.8-24.3 66.3-10.4 30.6-17.8 68.1-24.9 104.4-4.8 24.6-9.4 47.9-14.8 68.7-1.1 4.4-5.1 7.4-9.6 7.4z" fill="#212121" p-id="7792"></path><path d="M324.1 918c-14.1 0-24.8-9.3-27.3-23.6-3.4-19.1 8.8-45.4 43.5-58.1 19.3-7 29.9-21 31.6-41.4 1.4-16.2-3.3-31-5.4-36.6-3.7-10.1-2.3-20.7 4.1-29.8 13.5-19.6 48.6-31.5 93.7-31.8 57.8-0.4 83.7 16.6 94 26.8 8.2 8.2 12.6 17.7 12.6 27.7 0 21.9-41.9 67.8-50.3 76.8-46.7 49.9-79.4 65.5-91.3 69.9C374.4 918 350 918 324.1 918z m61.1-166.7c2.6 6.9 8.3 25.1 6.6 45.2-2.3 28.5-17.7 48.7-44.6 58.5-25.5 9.3-32.3 26.5-30.6 35.8 0.8 4.7 3.4 7.1 7.6 7.1 25.1 0 46.7 0 98.1-19 21.9-8.1 53.2-32.3 83.5-64.7 31.7-33.9 44.9-57.9 45-63.2 0-4.6-2.2-9.1-6.7-13.5-13.3-13.2-42.3-21-77.8-21h-1.9c-45.5 0.4-70.1 12.7-77.4 23.2-2.7 3.9-3.3 7.6-1.8 11.6z" fill="#212121" p-id="7793"></path><path d="M494 372c-4.5 0-8.6-3.1-9.7-7.7-10.1-42.1-74.8-94-75.5-94.5-4.3-3.4-5-9.7-1.6-14 3.4-4.3 9.7-5 14-1.6 2.9 2.3 70.8 56.7 82.5 105.5 1.3 5.4-2 10.8-7.4 12.1-0.8 0.1-1.5 0.2-2.3 0.2z" fill="#FFF5CC" p-id="7794"></path></svg>